<?xml version="1.0" standalone="no"?>
<!DOCTYPE svg PUBLIC "-//W3C//DTD SVG 20010904//EN"
 "http://www.w3.org/TR/2001/REC-SVG-20010904/DTD/svg10.dtd">
<svg version="1.0" xmlns="http://www.w3.org/2000/svg"
 width="1700.000000pt" height="1131.000000pt" viewBox="0 0 1700.000000 1131.000000"
 preserveAspectRatio="xMidYMid meet">

<g transform="translate(0.000000,1131.000000) scale(0.100000,-0.100000)"
fill="#000000" stroke="none">
<path d="M1074 11218 c31 -141 30 -399 -3 -523 -63 -242 -171 -358 -385 -414
-63 -17 -110 -21 -220 -21 -129 0 -319 12 -423 26 -37 4 -43 3 -43 -14 0 -17
16 -19 278 -28 227 -9 289 -8 346 4 99 20 172 48 246 98 117 77 178 174 226
360 35 132 36 306 5 473 -11 63 -21 118 -21 123 0 4 -6 8 -14 8 -10 0 -9 -18
8 -92z"/>
<path d="M2054 11286 c102 -83 307 -166 521 -210 243 -49 283 -56 435 -73 132
-14 170 -14 255 -4 107 13 256 58 413 122 123 51 377 182 363 187 -6 2 -80
-30 -164 -72 -362 -178 -661 -236 -993 -191 -60 8 -118 17 -129 20 -11 2 -81
19 -155 36 -234 53 -376 106 -499 183 -54 34 -88 35 -47 2z"/>
<path d="M2190 11305 c0 -11 160 -84 235 -108 95 -29 273 -69 440 -97 168 -28
406 -28 544 0 103 21 246 67 316 102 54 28 175 99 175 104 0 2 -385 4 -855 4
-470 0 -855 -2 -855 -5z"/>
<path d="M4731 11273 c-33 -126 -42 -172 -60 -298 -81 -564 -21 -878 210
-1106 42 -43 122 -106 176 -142 126 -83 391 -226 488 -263 41 -16 75 -31 74
-34 0 -3 -32 -25 -71 -50 -38 -25 -118 -91 -177 -147 -175 -166 -260 -315
-317 -558 -16 -66 -19 -120 -19 -315 0 -214 2 -242 23 -313 64 -223 157 -339
387 -484 232 -146 410 -209 673 -239 301 -33 441 4 727 194 260 173 366 314
459 614 76 244 95 435 60 606 -60 297 -281 594 -527 711 -82 38 -255 99 -356
123 l-53 14 98 74 c187 142 400 376 546 600 119 182 195 359 234 545 28 137
20 385 -16 481 l-10 24 -1269 0 -1270 0 -10 -37z m1794 -1736 c113 -29 293
-99 367 -142 195 -115 333 -288 416 -525 42 -121 56 -218 50 -362 -11 -248
-126 -579 -258 -745 -118 -147 -415 -344 -610 -405 -66 -20 -94 -23 -225 -22
-142 1 -159 4 -305 42 -289 76 -452 145 -595 251 -104 78 -176 165 -230 276
-70 145 -80 200 -80 420 1 105 6 222 13 261 39 235 144 458 291 617 62 67 179
164 244 201 41 24 44 24 107 10 185 -39 397 -2 595 105 98 53 90 52 220 18z"/>
<path d="M7870 11285 c-45 -119 -60 -277 -36 -395 19 -95 69 -225 118 -309 45
-77 180 -210 248 -243 138 -69 223 -83 620 -97 189 -6 248 -5 304 6 201 42
338 138 415 290 62 124 98 341 82 495 -15 146 -42 278 -56 278 -10 0 -8 -21 8
-87 17 -72 21 -121 21 -268 0 -166 -2 -187 -27 -275 -39 -137 -76 -207 -147
-274 -65 -62 -145 -103 -251 -130 -112 -28 -478 -16 -774 25 -94 13 -196 57
-271 116 -100 80 -202 247 -246 400 -38 133 -26 384 23 475 7 14 6 18 -6 18
-8 0 -20 -11 -25 -25z"/>
<path d="M10530 11305 c0 -11 128 -90 195 -120 135 -62 291 -103 585 -154 378
-66 529 -49 875 93 118 49 370 179 356 184 -7 2 -76 -28 -154 -67 -315 -157
-573 -220 -857 -208 -142 6 -223 19 -435 68 -229 54 -374 108 -497 185 -34 22
-68 31 -68 19z"/>
<path d="M10690 11305 c0 -11 160 -84 235 -108 219 -68 520 -117 727 -117 243
0 436 47 630 153 153 84 228 76 -734 77 -472 0 -858 -2 -858 -5z"/>
<path d="M13231 11273 c-61 -235 -93 -480 -94 -713 0 -157 16 -270 54 -384 82
-245 231 -389 622 -599 87 -47 191 -98 232 -113 41 -16 75 -31 74 -34 0 -3
-32 -25 -71 -50 -109 -68 -305 -267 -362 -365 -57 -99 -101 -211 -129 -329
-19 -80 -22 -120 -21 -331 0 -234 1 -242 28 -330 74 -241 207 -378 531 -547
191 -99 329 -137 582 -159 229 -21 353 8 563 132 333 196 461 350 565 681 75
241 94 435 59 606 -61 303 -292 607 -547 721 -68 31 -251 93 -335 114 l-53 13
68 51 c313 233 619 620 741 938 91 237 111 465 60 684 l-11 51 -1273 0 -1273
0 -10 -37z m1771 -1729 c93 -23 258 -83 344 -125 174 -86 314 -231 409 -424
137 -282 142 -511 18 -890 -92 -282 -215 -433 -493 -604 -222 -137 -310 -166
-500 -166 -148 1 -215 12 -420 70 -489 139 -734 360 -796 716 -18 103 -15 356
6 476 28 163 104 356 188 480 82 119 232 262 345 327 41 24 44 24 107 10 122
-26 288 -15 420 28 64 20 236 101 254 118 10 10 18 8 118 -16z"/>
<path d="M16370 11285 c-31 -83 -44 -157 -44 -265 0 -130 14 -194 72 -329 88
-202 212 -326 394 -392 96 -35 208 -50 208 -28 0 11 -23 18 -82 26 -46 6 -109
21 -140 33 -174 65 -313 227 -390 455 -28 83 -31 101 -31 225 -1 109 4 150 21
212 25 90 25 88 12 88 -6 0 -15 -11 -20 -25z"/>
<path d="M2710 10760 c-10 -7 15 -10 81 -10 188 0 399 -57 635 -169 149 -71
266 -146 371 -237 75 -66 76 -66 35 -19 -107 122 -248 228 -382 286 -126 54
-352 125 -455 143 -100 18 -262 21 -285 6z"/>
<path d="M11210 10760 c-10 -7 15 -10 81 -10 126 0 247 -22 394 -71 227 -75
452 -198 605 -330 72 -62 74 -62 37 -18 -84 100 -237 218 -353 270 -111 50
-349 127 -456 149 -106 21 -282 27 -308 10z"/>
<path d="M2509 10726 c-239 -63 -464 -230 -689 -511 -167 -210 -267 -377 -326
-550 -26 -74 -28 -92 -28 -235 -1 -168 10 -228 66 -363 50 -122 167 -300 291
-439 162 -183 396 -324 605 -364 107 -20 284 -18 400 6 299 61 632 191 842
328 118 77 292 253 358 361 215 352 195 822 -49 1183 -56 81 -68 82 -18 1 153
-248 210 -567 154 -858 -64 -335 -251 -578 -570 -738 -190 -96 -581 -233 -748
-262 -123 -22 -288 -16 -402 14 -105 27 -283 116 -381 189 -160 120 -315 310
-418 517 -85 172 -111 289 -103 464 10 206 63 330 265 614 248 350 450 515
772 632 110 39 102 44 -21 11z"/>
<path d="M11025 10730 c-262 -70 -467 -220 -704 -515 -170 -211 -268 -378
-327 -551 -48 -142 -45 -354 7 -515 67 -210 275 -504 462 -654 214 -173 406
-245 654 -245 301 0 821 180 1096 379 176 127 325 311 391 485 130 337 87 705
-121 1018 -59 90 -75 98 -22 11 153 -248 210 -567 154 -858 -64 -335 -252
-579 -570 -738 -182 -92 -550 -222 -722 -257 -346 -69 -683 49 -965 337 -132
136 -263 348 -325 528 -37 109 -38 112 -38 265 0 135 3 165 24 230 33 108 80
196 186 355 272 406 480 584 827 710 103 38 100 44 -7 15z"/>
<path d="M32 9913 c-64 -8 -30 -21 51 -20 105 2 149 -14 292 -108 142 -94 235
-173 312 -265 65 -78 147 -225 181 -325 69 -204 78 -487 22 -675 -37 -122
-128 -246 -235 -320 l-45 -31 -72 25 c-145 50 -237 67 -390 73 l-148 6 0
-1235 0 -1235 60 -17 c174 -49 438 -69 622 -47 304 35 579 159 758 340 174
175 260 386 260 642 0 268 -107 600 -261 809 -167 226 -494 490 -737 596 -34
15 -62 30 -62 34 0 4 18 20 40 35 67 47 163 156 197 225 61 125 78 206 78 385
0 118 -5 179 -18 235 -76 321 -218 530 -492 724 -197 140 -271 166 -413 149z"/>
<path d="M8480 9900 c-242 -52 -644 -259 -770 -397 -60 -65 -124 -193 -140
-280 -10 -50 -10 -74 3 -135 24 -115 74 -240 135 -338 153 -242 279 -390 421
-495 l80 -59 -68 -36 c-300 -158 -466 -455 -501 -897 -36 -441 98 -870 355
-1142 228 -242 550 -375 936 -388 184 -6 304 6 461 46 406 105 690 359 779
696 33 123 37 309 10 457 -41 228 -129 446 -242 598 -169 228 -498 493 -740
598 -32 14 -59 28 -59 32 0 4 18 20 40 35 118 81 216 227 256 380 26 98 26
358 1 465 -76 322 -216 528 -492 724 -120 85 -183 120 -254 142 -60 18 -107
17 -211 -6z m243 -27 c99 -38 334 -209 428 -310 205 -221 305 -546 270 -878
-22 -217 -111 -378 -267 -485 l-45 -32 -72 26 c-134 47 -245 68 -387 73 -151
6 -247 -5 -354 -41 l-71 -24 -80 63 c-211 165 -437 478 -531 739 -55 150 -28
303 75 433 89 111 282 252 430 314 120 50 350 129 405 139 64 11 144 5 199
-17z"/>
<path d="M16851 9865 c-227 -77 -543 -255 -638 -359 -91 -99 -163 -279 -148
-369 3 -17 8 -48 12 -67 10 -58 63 -201 96 -260 134 -240 317 -459 476 -571
l61 -43 -68 -36 c-304 -160 -467 -452 -503 -903 -43 -540 172 -1050 548 -1300
76 -51 271 -147 298 -147 13 0 15 127 15 1230 l0 1230 -47 -7 c-27 -3 -85 -16
-131 -29 -45 -13 -88 -24 -95 -24 -20 0 -167 122 -236 196 -83 89 -184 226
-253 344 -161 275 -189 429 -107 598 53 109 227 266 393 356 80 43 291 126
414 162 34 10 62 22 62 26 0 16 -47 7 -149 -27z"/>
<path d="M4217 9853 c-13 -12 -7 -52 9 -61 38 -21 80 21 54 53 -13 15 -51 20
-63 8z"/>
<path d="M12717 9853 c-13 -12 -7 -52 9 -61 38 -21 80 21 54 53 -13 15 -51 20
-63 8z"/>
<path d="M3711 9811 c-42 -39 -43 -88 -3 -133 23 -25 36 -31 66 -30 67 3 98
34 98 100 0 28 -7 43 -31 64 -43 38 -89 38 -130 -1z"/>
<path d="M12211 9811 c-40 -38 -42 -86 -5 -130 21 -25 33 -31 66 -31 51 0 77
14 93 53 18 43 9 82 -27 112 -41 35 -87 33 -127 -4z"/>
<path d="M4482 9748 c-67 -18 -93 -111 -46 -167 64 -77 184 -34 184 66 0 73
-64 120 -138 101z"/>
<path d="M12982 9748 c-39 -10 -72 -58 -72 -105 0 -47 44 -93 96 -100 36 -5
45 -1 77 27 32 28 37 38 37 75 0 75 -64 123 -138 103z"/>
<path d="M4002 9688 c-18 -18 -14 -63 8 -83 45 -40 109 20 75 71 -17 26 -62
33 -83 12z"/>
<path d="M12503 9688 c-22 -29 -22 -48 1 -74 18 -22 28 -26 50 -20 38 9 54 48
32 81 -18 27 -66 35 -83 13z"/>
<path d="M4260 9426 c-19 -23 -8 -61 18 -64 44 -7 67 32 36 62 -19 20 -38 20
-54 2z"/>
<path d="M12760 9426 c-19 -23 -8 -61 18 -64 44 -7 67 32 36 62 -19 20 -38 20
-54 2z"/>
<path d="M3846 9384 c-21 -21 -17 -42 11 -61 19 -13 24 -12 43 7 19 19 20 24
7 43 -19 28 -40 32 -61 11z"/>
<path d="M12345 9384 c-20 -21 -16 -43 12 -61 19 -13 24 -12 42 6 18 18 19 25
9 46 -13 29 -39 32 -63 9z"/>
<path d="M4475 9335 c-30 -29 -32 -58 -5 -85 40 -40 110 -14 110 41 0 30 -9
43 -37 58 -31 16 -41 14 -68 -14z"/>
<path d="M12975 9335 c-30 -29 -32 -58 -5 -85 38 -38 110 -14 110 38 0 33 -8
45 -37 61 -31 16 -41 14 -68 -14z"/>
<path d="M4222 9078 c-28 -28 -1 -75 37 -63 11 3 23 15 26 26 12 38 -35 65
-63 37z"/>
<path d="M12722 9078 c-28 -28 -1 -75 37 -63 11 3 23 15 26 26 12 38 -35 65
-63 37z"/>
<path d="M3454 8121 c-182 -33 -326 -89 -514 -201 -299 -178 -522 -432 -599
-684 -43 -139 -25 -317 48 -472 155 -332 589 -625 1076 -726 161 -33 444 -33
594 0 321 72 576 233 663 418 29 62 59 191 57 247 -1 21 -5 10 -14 -33 -45
-226 -198 -409 -432 -517 -224 -103 -454 -146 -673 -124 -159 16 -236 32 -385
82 -213 71 -443 194 -601 321 -132 107 -248 273 -301 433 -36 110 -38 259 -5
356 73 212 308 498 533 648 171 115 375 202 548 235 105 20 298 21 390 1 382
-80 686 -367 847 -800 45 -119 82 -270 93 -375 l8 -85 2 87 c1 101 -28 266
-66 371 -63 176 -163 334 -302 480 -174 182 -323 280 -498 328 -111 30 -331
35 -469 10z"/>
<path d="M11953 8121 c-496 -90 -987 -482 -1112 -885 -26 -85 -29 -239 -5
-330 72 -276 310 -529 672 -711 219 -110 455 -172 692 -182 288 -11 516 42
758 178 106 61 222 176 261 260 33 69 62 188 60 247 -1 30 -3 25 -14 -28 -37
-183 -142 -337 -305 -447 -66 -45 -215 -111 -328 -147 -323 -102 -722 -52
-1107 139 -373 185 -569 382 -656 665 -33 104 -33 248 -1 341 72 211 308 498
533 648 171 115 375 202 548 235 104 20 298 21 389 1 381 -80 687 -368 848
-800 45 -119 82 -270 93 -375 l8 -85 2 87 c3 217 -86 484 -230 688 -65 92
-209 243 -305 320 -86 68 -223 140 -324 170 -108 31 -336 37 -477 11z"/>
<path d="M2763 7990 c-53 -22 -31 -100 28 -100 59 0 72 71 19 100 -21 11 -18
11 -47 0z"/>
<path d="M11269 7993 c-9 -2 -22 -15 -29 -28 -31 -58 59 -106 95 -51 13 19 14
29 5 45 -9 18 -43 43 -52 40 -2 -1 -10 -3 -19 -6z"/>
<path d="M2147 7833 c-12 -12 -7 -50 8 -63 32 -27 82 23 55 55 -13 15 -51 20
-63 8z"/>
<path d="M10647 7833 c-26 -26 12 -80 47 -67 21 8 30 42 16 59 -13 15 -51 20
-63 8z"/>
<path d="M2977 7753 c-12 -12 -7 -50 8 -63 8 -6 23 -9 34 -5 25 8 36 41 21 60
-13 15 -51 20 -63 8z"/>
<path d="M11477 7753 c-12 -12 -7 -50 8 -63 32 -27 82 23 55 55 -13 15 -51 20
-63 8z"/>
<path d="M2416 7709 c-18 -14 -26 -30 -26 -53 0 -81 99 -106 136 -34 19 37 5
80 -32 97 -35 16 -48 14 -78 -10z"/>
<path d="M10916 7709 c-34 -27 -36 -79 -4 -109 38 -35 90 -25 114 22 19 37 5
80 -32 97 -35 16 -48 14 -78 -10z"/>
<path d="M2807 7532 c-20 -22 -22 -63 -5 -80 20 -20 76 -15 88 7 16 31 12 59
-12 75 -29 21 -51 20 -71 -2z"/>
<path d="M11307 7532 c-20 -22 -22 -63 -5 -80 20 -20 76 -15 88 7 15 29 12 56
-8 74 -24 22 -55 21 -75 -1z"/>
<path d="M2070 7509 c-10 -18 -9 -25 9 -43 27 -27 56 -12 56 30 0 24 -5 30
-27 32 -19 2 -30 -3 -38 -19z"/>
<path d="M10571 7511 c-14 -25 -5 -48 20 -56 27 -9 51 13 47 44 -4 34 -51 43
-67 12z"/>
<path d="M2500 7426 c-6 -8 -10 -25 -8 -38 4 -30 46 -38 65 -12 17 23 16 29
-3 48 -19 20 -38 20 -54 2z"/>
<path d="M11002 7428 c-7 -7 -12 -22 -12 -35 0 -31 47 -44 67 -18 17 24 16 30
-3 49 -19 19 -36 20 -52 4z"/>
<path d="M2073 7270 c-70 -29 -46 -140 31 -140 34 0 76 41 76 73 0 51 -59 87
-107 67z"/>
<path d="M10573 7270 c-25 -10 -43 -39 -43 -68 0 -33 38 -72 71 -72 36 0 79
39 79 72 -1 51 -59 88 -107 68z"/>
<path d="M2393 7105 c-27 -19 -34 -49 -16 -74 27 -40 103 -16 103 32 0 20 -34
57 -53 57 -7 0 -22 -7 -34 -15z"/>
<path d="M10892 7104 c-24 -17 -30 -62 -10 -82 20 -20 65 -14 82 10 21 29 20
40 -4 66 -25 26 -38 27 -68 6z"/>
<path d="M6445 6674 c-183 -32 -365 -104 -550 -219 -143 -88 -205 -137 -289
-225 -193 -205 -275 -430 -305 -842 -20 -272 24 -462 151 -644 115 -167 284
-304 492 -399 93 -42 247 -97 254 -90 3 2 -1 7 -9 9 -240 84 -397 177 -537
318 -232 231 -336 514 -318 858 28 500 197 774 632 1023 254 144 471 209 704
208 251 0 449 -86 626 -273 117 -123 204 -260 255 -398 12 -33 24 -58 27 -56
7 8 -36 120 -81 211 -118 237 -310 421 -512 490 -133 45 -375 58 -540 29z"/>
<path d="M14945 6674 c-183 -32 -365 -104 -550 -219 -140 -86 -203 -135 -286
-222 -114 -118 -195 -261 -243 -425 -51 -177 -81 -478 -65 -647 37 -397 326
-713 803 -880 49 -17 91 -29 94 -26 3 2 -4 7 -14 11 -10 3 -64 24 -119 46
-231 92 -420 242 -549 433 -72 107 -98 162 -135 280 -40 129 -55 261 -47 402
20 370 104 588 305 796 160 166 497 353 747 415 112 28 163 34 294 33 242 -1
442 -90 616 -273 117 -124 204 -260 255 -399 13 -34 24 -58 26 -52 6 16 -69
199 -107 263 -123 209 -299 369 -475 430 -141 50 -379 64 -550 34z"/>
<path d="M6668 6573 c18 -2 45 -2 60 0 15 2 0 4 -33 4 -33 0 -45 -2 -27 -4z"/>
<path d="M15153 6573 c9 -2 25 -2 35 0 9 3 1 5 -18 5 -19 0 -27 -2 -17 -5z"/>
<path d="M15228 6573 c7 -3 16 -2 19 1 4 3 -2 6 -13 5 -11 0 -14 -3 -6 -6z"/>
<path d="M6828 6563 c7 -3 16 -2 19 1 4 3 -2 6 -13 5 -11 0 -14 -3 -6 -6z"/>
<path d="M15048 6563 c6 -2 18 -2 25 0 6 3 1 5 -13 5 -14 0 -19 -2 -12 -5z"/>
<path d="M15318 6563 c7 -3 16 -2 19 1 4 3 -2 6 -13 5 -11 0 -14 -3 -6 -6z"/>
<path d="M6396 6531 c-4 -5 3 -7 14 -4 23 6 26 13 6 13 -8 0 -17 -4 -20 -9z"/>
<path d="M14770 6490 c-8 -5 -10 -10 -5 -10 6 0 17 5 25 10 8 5 11 10 5 10 -5
0 -17 -5 -25 -10z"/>
<path d="M6150 6440 c-9 -6 -10 -10 -3 -10 6 0 15 5 18 10 8 12 4 12 -15 0z"/>
<path d="M7145 6420 c10 -11 20 -20 23 -20 3 0 -3 9 -13 20 -10 11 -20 20 -23
20 -3 0 3 -9 13 -20z"/>
<path d="M15640 6426 c0 -2 8 -10 18 -17 15 -13 16 -12 3 4 -13 16 -21 21 -21
13z"/>
<path d="M15681 6387 c2 -1 13 -9 24 -17 19 -14 19 -14 6 3 -7 9 -18 17 -24
17 -6 0 -8 -1 -6 -3z"/>
<path d="M6010 6370 c-9 -6 -10 -10 -3 -10 6 0 15 5 18 10 8 12 4 12 -15 0z"/>
<path d="M7200 6376 c0 -2 8 -10 18 -17 15 -13 16 -12 3 4 -13 16 -21 21 -21
13z"/>
<path d="M5885 6300 c-16 -11 -25 -20 -20 -20 10 0 64 39 55 40 -3 0 -18 -9
-35 -20z"/>
<path d="M15765 6300 c10 -11 20 -20 23 -20 3 0 -3 9 -13 20 -10 11 -20 20
-23 20 -3 0 3 -9 13 -20z"/>
<path d="M14370 6290 c-9 -6 -10 -10 -3 -10 6 0 15 5 18 10 8 12 4 12 -15 0z"/>
<path d="M15790 6266 c0 -2 8 -10 18 -17 15 -13 16 -12 3 4 -13 16 -21 21 -21
13z"/>
<path d="M5735 6194 l-40 -36 43 32 c36 27 49 40 40 40 -2 0 -21 -16 -43 -36z"/>
<path d="M15820 6226 c0 -2 8 -10 18 -17 15 -13 16 -12 3 4 -13 16 -21 21 -21
13z"/>
<path d="M7340 6200 c6 -11 13 -20 16 -20 2 0 0 9 -6 20 -6 11 -13 20 -16 20
-2 0 0 -9 6 -20z"/>
<path d="M14209 6173 c-13 -16 -12 -17 4 -4 9 7 17 15 17 17 0 8 -8 3 -21 -13z"/>
<path d="M15860 6170 c6 -11 13 -20 16 -20 2 0 0 9 -6 20 -6 11 -13 20 -16 20
-2 0 0 -9 6 -20z"/>
<path d="M5659 6123 l-24 -28 28 24 c15 14 27 26 27 28 0 8 -8 1 -31 -24z"/>
<path d="M14145 6119 c-11 -16 -1 -19 13 -3 7 8 8 14 3 14 -5 0 -13 -5 -16
-11z"/>
<path d="M5594 6053 c-15 -20 -23 -33 -16 -29 13 8 56 66 49 66 -3 0 -17 -17
-33 -37z"/>
<path d="M14109 6073 c-13 -16 -12 -17 4 -4 9 7 17 15 17 17 0 8 -8 3 -21 -13z"/>
<path d="M14079 6033 c-13 -16 -12 -17 4 -4 9 7 17 15 17 17 0 8 -8 3 -21 -13z"/>
<path d="M7441 6005 c1 -19 18 -51 18 -35 0 8 -4 22 -9 30 -5 8 -9 11 -9 5z"/>
<path d="M7581 5914 c0 -11 3 -14 6 -6 3 7 2 16 -1 19 -3 4 -6 -2 -5 -13z"/>
<path d="M16081 5914 c0 -11 3 -14 6 -6 3 7 2 16 -1 19 -3 4 -6 -2 -5 -13z"/>
<path d="M14002 5895 c-17 -37 -14 -45 4 -12 9 16 14 31 11 33 -2 2 -9 -7 -15
-21z"/>
<path d="M7596 5857 c3 -10 9 -15 12 -12 3 3 0 11 -7 18 -10 9 -11 8 -5 -6z"/>
<path d="M16096 5857 c3 -10 9 -15 12 -12 3 3 0 11 -7 18 -10 9 -11 8 -5 -6z"/>
<path d="M15991 5834 c0 -11 3 -14 6 -6 3 7 2 16 -1 19 -3 4 -6 -2 -5 -13z"/>
<path d="M7611 5814 c-1 -6 6 -55 14 -110 53 -350 -37 -766 -227 -1054 -53
-81 -162 -196 -242 -257 -114 -86 -325 -171 -466 -186 l-35 -4 36 -1 c58 -3
207 26 278 55 305 120 553 447 656 863 45 182 45 466 0 650 -7 30 -14 50 -14
44z"/>
<path d="M16117 5758 c24 -107 28 -346 8 -478 -46 -315 -159 -575 -328 -755
-100 -108 -177 -165 -302 -225 -101 -49 -179 -74 -283 -89 -45 -7 -49 -9 -21
-10 60 -2 207 28 283 57 300 117 547 445 654 870 24 98 26 124 27 307 0 160
-4 218 -19 293 -11 50 -23 92 -26 92 -4 0 0 -28 7 -62z"/>
<path d="M16001 5784 c0 -11 3 -14 6 -6 3 7 2 16 -1 19 -3 4 -6 -2 -5 -13z"/>
<path d="M16012 5730 c0 -14 2 -19 5 -12 2 6 2 18 0 25 -3 6 -5 1 -5 -13z"/>
<path d="M7511 5724 c0 -11 3 -14 6 -6 3 7 2 16 -1 19 -3 4 -6 -2 -5 -13z"/>
<path d="M3080 5705 c-396 -73 -713 -296 -955 -675 -59 -92 -206 -375 -276
-530 -137 -306 -178 -456 -186 -681 -7 -179 3 -261 52 -454 61 -243 131 -381
255 -505 143 -143 326 -227 635 -290 461 -95 633 -99 869 -23 376 121 768 349
955 556 207 227 307 426 437 867 92 310 99 350 99 550 0 155 -3 184 -24 250
-127 410 -422 702 -836 829 -117 36 -355 86 -505 106 -132 18 -420 18 -520 0z
m553 -20 c486 -72 789 -212 1031 -477 267 -292 341 -608 240 -1013 -38 -150
-131 -456 -165 -543 -174 -437 -460 -731 -922 -947 -371 -173 -709 -215 -1087
-134 -419 89 -587 158 -739 303 -139 133 -210 281 -268 556 -23 107 -26 150
-27 300 0 245 35 431 124 660 106 271 327 646 500 847 198 232 475 387 790
443 134 23 380 26 523 5z"/>
<path d="M3033 5596 c-145 -28 -258 -78 -393 -175 -113 -81 -193 -155 -278
-255 -111 -133 -182 -247 -288 -464 -222 -453 -279 -657 -279 -992 1 -156 4
-202 24 -290 45 -205 98 -333 181 -440 141 -182 314 -270 671 -344 407 -83
664 -78 934 18 538 193 955 756 1104 1492 121 597 -76 1089 -506 1263 -108 44
-462 131 -703 172 -150 26 -371 33 -467 15z"/>
<path d="M11580 5705 c-404 -71 -731 -310 -980 -715 -71 -115 -267 -518 -325
-665 -26 -66 -61 -172 -78 -235 -29 -110 -31 -124 -31 -320 -1 -191 1 -213 27
-325 67 -284 143 -447 267 -574 149 -153 326 -236 645 -301 461 -95 633 -99
869 -23 375 121 752 339 953 553 200 213 309 429 439 870 92 311 99 350 98
550 0 162 -2 182 -28 265 -75 245 -230 464 -441 623 -90 67 -262 152 -390 191
-119 37 -358 87 -505 107 -130 17 -419 16 -520 -1z m552 -21 c443 -61 722
-181 970 -413 149 -140 273 -341 318 -516 41 -157 36 -360 -12 -544 -136 -528
-247 -789 -432 -1020 -258 -320 -774 -597 -1216 -652 -116 -14 -333 -6 -450
16 -430 82 -658 169 -807 309 -133 124 -203 251 -258 472 -125 496 -29 961
314 1528 100 165 142 227 229 335 208 257 489 422 822 481 135 24 369 26 522
4z"/>
<path d="M11533 5596 c-98 -19 -165 -42 -248 -85 -205 -106 -406 -295 -558
-526 -107 -162 -304 -585 -361 -775 -57 -191 -70 -281 -70 -490 0 -177 3 -206
28 -320 101 -455 309 -650 802 -754 446 -94 692 -92 971 5 313 109 613 369
812 700 229 383 363 898 330 1264 -32 349 -209 635 -474 768 -27 13 -93 38
-145 55 -110 36 -499 125 -645 148 -141 22 -353 27 -442 10z"/>
<path d="M13941 5694 c0 -11 3 -14 6 -6 3 7 2 16 -1 19 -3 4 -6 -2 -5 -13z"/>
<path d="M7523 5640 c0 -25 2 -35 4 -22 2 12 2 32 0 45 -2 12 -4 2 -4 -23z"/>
<path d="M16023 5635 c0 -22 2 -30 4 -17 2 12 2 30 0 40 -3 9 -5 -1 -4 -23z"/>
<path d="M5432 5635 c0 -16 2 -22 5 -12 2 9 2 23 0 30 -3 6 -5 -1 -5 -18z"/>
<path d="M13931 5644 c0 -11 3 -14 6 -6 3 7 2 16 -1 19 -3 4 -6 -2 -5 -13z"/>
<path d="M5423 5535 c0 -22 2 -30 4 -17 2 12 2 30 0 40 -3 9 -5 -1 -4 -23z"/>
<path d="M13923 5470 c0 -47 2 -66 4 -42 2 23 2 61 0 85 -2 23 -4 4 -4 -43z"/>
<path d="M5423 5415 c0 -27 2 -38 4 -22 2 15 2 37 0 50 -2 12 -4 0 -4 -28z"/>
<path d="M95 5343 c-68 -16 -95 -25 -95 -32 0 -5 24 -3 53 5 79 21 257 18 342
-5 336 -93 629 -393 716 -730 34 -133 23 -243 -36 -366 -80 -166 -241 -295
-432 -347 -60 -16 -108 -21 -208 -21 -153 0 -255 19 -363 68 -39 19 -72 30
-72 26 0 -13 109 -58 200 -83 111 -30 347 -33 450 -5 337 89 554 410 486 717
-24 109 -81 249 -127 316 -149 215 -429 404 -666 450 -71 13 -204 17 -248 7z"/>
<path d="M890 5330 c-22 -40 26 -80 58 -48 17 17 15 55 -4 62 -27 11 -43 7
-54 -14z"/>
<path d="M8590 5343 c-160 -27 -311 -135 -387 -280 -61 -114 -78 -197 -78
-393 0 -140 4 -189 19 -245 63 -238 196 -410 391 -506 132 -65 215 -82 395
-83 118 -1 171 4 220 17 336 90 555 411 486 714 -42 185 -100 301 -211 421
-215 232 -486 365 -733 361 -43 -1 -88 -4 -102 -6z m285 -27 c280 -67 552
-299 682 -585 124 -271 90 -485 -106 -681 -97 -97 -179 -145 -306 -181 -105
-30 -301 -32 -420 -5 -105 23 -245 92 -323 158 -184 156 -285 416 -269 697 18
319 155 521 402 592 76 22 256 24 340 5z"/>
<path d="M8988 5159 c-26 -15 -24 -75 3 -89 52 -29 107 26 75 75 -17 26 -48
32 -78 14z"/>
<path d="M9234 4967 c-53 -46 -23 -127 47 -127 66 0 95 88 43 129 -34 27 -57
26 -90 -2z"/>
<path d="M9055 4747 c-27 -20 -16 -61 17 -65 28 -3 55 28 43 48 -13 21 -42 29
-60 17z"/>
<path d="M9397 4702 c-22 -24 -21 -35 1 -54 12 -11 24 -13 40 -7 28 11 30 54
3 69 -25 13 -25 13 -44 -8z"/>
<path d="M9390 5331 c-13 -25 -4 -48 21 -56 26 -8 49 11 49 40 0 37 -52 49
-70 16z"/>
<path d="M7522 5315 c0 -16 2 -22 5 -12 2 9 2 23 0 30 -3 6 -5 -1 -5 -18z"/>
<path d="M16022 5310 c0 -14 2 -19 5 -12 2 6 2 18 0 25 -3 6 -5 1 -5 -13z"/>
<path d="M16929 5288 c-81 -42 -185 -144 -226 -223 -63 -120 -78 -199 -78
-400 0 -159 3 -190 24 -260 56 -195 155 -337 309 -444 63 -44 42 -13 -24 35
-201 147 -317 427 -301 723 15 267 115 455 289 546 83 43 83 43 76 50 -3 3
-34 -9 -69 -27z"/>
<path d="M16011 5244 c0 -11 3 -14 6 -6 3 7 2 16 -1 19 -3 4 -6 -2 -5 -13z"/>
<path d="M13941 5234 c0 -11 3 -14 6 -6 3 7 2 16 -1 19 -3 4 -6 -2 -5 -13z"/>
<path d="M7501 5184 c0 -11 3 -14 6 -6 3 7 2 16 -1 19 -3 4 -6 -2 -5 -13z"/>
<path d="M13951 5174 c0 -11 3 -14 6 -6 3 7 2 16 -1 19 -3 4 -6 -2 -5 -13z"/>
<path d="M482 5158 c-17 -17 -15 -64 4 -82 21 -22 50 -20 74 4 24 24 25 38 4
68 -17 24 -62 30 -82 10z"/>
<path d="M1145 5145 c-14 -13 -25 -36 -25 -50 0 -33 41 -75 73 -75 39 0 77 36
77 74 0 69 -76 101 -125 51z"/>
<path d="M9645 5145 c-32 -31 -32 -69 0 -100 30 -30 64 -32 99 -4 19 15 26 30
26 55 0 69 -76 99 -125 49z"/>
<path d="M1504 5139 c-24 -27 -8 -54 32 -54 23 0 30 5 32 23 4 25 -13 52 -33
52 -6 0 -20 -9 -31 -21z"/>
<path d="M10006 5141 c-25 -28 -5 -63 32 -59 30 3 42 39 22 64 -17 19 -34 18
-54 -5z"/>
<path d="M5471 5084 c0 -11 3 -14 6 -6 3 7 2 16 -1 19 -3 4 -6 -2 -5 -13z"/>
<path d="M13971 5084 c0 -11 3 -14 6 -6 3 7 2 16 -1 19 -3 4 -6 -2 -5 -13z"/>
<path d="M734 4967 c-53 -46 -23 -127 47 -127 66 0 95 88 43 129 -34 27 -57
26 -90 -2z"/>
<path d="M15936 4945 c-9 -26 -7 -32 5 -12 6 10 9 21 6 23 -2 3 -7 -2 -11 -11z"/>
<path d="M7406 4863 c-6 -14 -5 -15 5 -6 7 7 10 15 7 18 -3 3 -9 -2 -12 -12z"/>
<path d="M14031 4864 c0 -11 3 -14 6 -6 3 7 2 16 -1 19 -3 4 -6 -2 -5 -13z"/>
<path d="M1550 4790 c-11 -11 -20 -27 -20 -35 0 -20 36 -55 56 -55 34 0 54 20
54 55 0 53 -52 73 -90 35z"/>
<path d="M10050 4790 c-11 -11 -20 -27 -20 -35 0 -21 36 -55 58 -55 30 0 55
25 55 55 0 51 -56 72 -93 35z"/>
<path d="M555 4747 c-27 -20 -16 -61 17 -65 28 -3 55 28 43 48 -13 21 -42 29
-60 17z"/>
<path d="M15846 4743 c-6 -14 -5 -15 5 -6 7 7 10 15 7 18 -3 3 -9 -2 -12 -12z"/>
<path d="M1222 4727 c-49 -52 -6 -136 63 -123 61 13 83 78 40 121 -31 32 -74
33 -103 2z"/>
<path d="M9722 4727 c-31 -33 -29 -80 4 -106 30 -24 43 -26 77 -10 25 11 47
47 47 75 0 8 -11 26 -25 39 -31 32 -74 33 -103 2z"/>
<path d="M5595 4713 c8 -18 18 -33 20 -33 10 0 4 16 -16 40 l-20 25 16 -32z"/>
<path d="M894 4699 c-24 -27 -8 -54 32 -54 23 0 30 5 32 24 3 15 -3 30 -14 38
-24 17 -28 17 -50 -8z"/>
<path d="M7319 4703 c-13 -16 -12 -17 4 -4 16 13 21 21 13 21 -2 0 -10 -8 -17
-17z"/>
<path d="M6862 4660 c-31 -30 -37 -63 -16 -99 41 -69 144 -39 144 42 0 33 -46
77 -79 77 -15 0 -37 -9 -49 -20z"/>
<path d="M15359 4651 c-37 -37 -37 -65 1 -103 26 -25 36 -29 63 -24 64 13 87
82 42 130 -32 35 -69 34 -106 -3z"/>
<path d="M5630 4663 c0 -6 8 -17 18 -24 16 -13 16 -13 2 6 -8 11 -16 22 -17
24 -2 2 -3 0 -3 -6z"/>
<path d="M7286 4654 c-5 -14 -4 -15 9 -4 17 14 19 20 6 20 -5 0 -12 -7 -15
-16z"/>
<path d="M15789 4653 c-13 -16 -12 -17 4 -4 16 13 21 21 13 21 -2 0 -10 -8
-17 -17z"/>
<path d="M6532 4648 c-25 -25 -12 -56 30 -71 26 -9 53 35 38 62 -12 23 -49 28
-68 9z"/>
<path d="M15032 4648 c-19 -19 -14 -45 10 -62 19 -13 25 -14 43 -2 25 16 31
42 15 61 -15 18 -52 19 -68 3z"/>
<path d="M7249 4603 c-13 -16 -12 -17 4 -4 9 7 17 15 17 17 0 8 -8 3 -21 -13z"/>
<path d="M15714 4558 l-29 -33 33 29 c30 28 37 36 29 36 -2 0 -16 -15 -33 -32z"/>
<path d="M7211 4558 c-14 -23 -14 -23 8 -4 22 20 25 26 13 26 -4 0 -13 -10
-21 -22z"/>
<path d="M15629 4483 l-24 -28 28 24 c15 14 27 26 27 28 0 8 -8 1 -31 -24z"/>
<path d="M7126 4485 c-11 -8 -15 -15 -9 -15 6 0 16 7 23 15 16 19 11 19 -14 0z"/>
<path d="M14448 4478 c5 -5 16 -8 23 -6 8 3 3 7 -10 11 -17 4 -21 3 -13 -5z"/>
<path d="M5971 4446 c-16 -19 -11 -46 12 -60 25 -16 52 4 52 40 0 24 -5 30
-26 32 -14 2 -31 -4 -38 -12z"/>
<path d="M14471 4446 c-16 -19 -11 -46 12 -60 25 -16 52 4 52 40 0 24 -5 30
-26 32 -14 2 -31 -4 -38 -12z"/>
<path d="M6712 4438 c-33 -33 6 -91 47 -69 24 13 30 31 20 59 -9 24 -47 30
-67 10z"/>
<path d="M15212 4438 c-33 -33 6 -91 47 -68 25 13 30 30 18 58 -11 24 -45 30
-65 10z"/>
<path d="M6282 4414 c-28 -19 -29 -57 -2 -84 25 -25 41 -25 72 0 14 10 28 16
32 13 3 -4 1 8 -5 25 -11 31 -43 62 -64 62 -6 0 -21 -7 -33 -16z"/>
<path d="M14782 4414 c-12 -8 -22 -26 -22 -40 0 -26 32 -64 54 -64 22 0 66 40
66 60 0 19 -44 60 -64 60 -6 0 -22 -7 -34 -16z"/>
<path d="M6970 4385 c-14 -8 -20 -14 -14 -15 5 0 19 7 30 15 24 18 16 19 -16
0z"/>
<path d="M6418 4333 c6 -2 18 -2 25 0 6 3 1 5 -13 5 -14 0 -19 -2 -12 -5z"/>
<path d="M6818 4333 c7 -3 16 -2 19 1 4 3 -2 6 -13 5 -11 0 -14 -3 -6 -6z"/>
<path d="M6478 4323 c6 -2 18 -2 25 0 6 3 1 5 -13 5 -14 0 -19 -2 -12 -5z"/>
<path d="M6758 4323 c7 -3 16 -2 19 1 4 3 -2 6 -13 5 -11 0 -14 -3 -6 -6z"/>
<path d="M14978 4323 c6 -2 18 -2 25 0 6 3 1 5 -13 5 -14 0 -19 -2 -12 -5z"/>
<path d="M15253 4323 c9 -2 23 -2 30 0 6 3 -1 5 -18 5 -16 0 -22 -2 -12 -5z"/>
<path d="M6628 4313 c12 -2 30 -2 40 0 9 3 -1 5 -23 4 -22 0 -30 -2 -17 -4z"/>
<path d="M15108 4313 c12 -2 32 -2 45 0 12 2 2 4 -23 4 -25 0 -35 -2 -22 -4z"/>
<path d="M7022 4228 c-32 -32 8 -80 48 -58 34 18 19 70 -20 70 -9 0 -21 -5
-28 -12z"/>
<path d="M15522 4228 c-32 -32 8 -80 48 -58 34 18 19 70 -20 70 -9 0 -21 -5
-28 -12z"/>
<path d="M6662 4088 c-13 -13 -16 -47 -4 -64 21 -32 82 -13 82 26 0 39 -51 65
-78 38z"/>
<path d="M15161 4081 c-17 -17 -19 -25 -10 -45 15 -32 44 -38 71 -16 19 15 21
22 13 46 -13 36 -46 43 -74 15z"/>
<path d="M6284 4056 c-12 -31 0 -51 30 -51 36 0 56 26 37 49 -17 20 -60 21
-67 2z"/>
<path d="M14784 4056 c-12 -31 0 -51 30 -51 36 0 56 26 37 49 -17 20 -60 21
-67 2z"/>
<path d="M6872 3918 c-17 -17 -15 -64 4 -82 21 -22 50 -20 74 4 24 24 25 38 4
68 -17 24 -62 30 -82 10z"/>
<path d="M15372 3918 c-17 -17 -15 -64 4 -82 21 -22 50 -20 74 4 24 24 25 38
4 68 -17 24 -62 30 -82 10z"/>
<path d="M5905 3633 c-589 -64 -959 -300 -1124 -714 -85 -213 -143 -560 -143
-859 -1 -431 133 -667 508 -890 138 -82 383 -206 434 -220 22 -6 40 -14 39
-18 0 -4 -32 -27 -71 -52 -109 -68 -305 -267 -362 -365 -78 -135 -129 -290
-151 -462 -6 -43 -4 -53 8 -53 10 0 17 22 25 78 33 233 143 467 297 631 58 62
177 160 238 195 41 24 44 24 107 10 128 -27 305 -13 442 35 32 11 101 42 154
70 l97 50 96 -25 c122 -31 298 -96 378 -140 274 -152 463 -463 480 -791 3 -64
10 -113 16 -113 6 0 8 41 4 112 -10 219 -89 407 -256 612 -131 162 -331 271
-639 349 l-53 13 97 75 c317 241 633 662 734 976 39 122 48 165 61 284 19 186
-14 363 -102 548 -158 334 -446 558 -829 647 -64 15 -399 27 -485 17z"/>
<path d="M14405 3634 c-343 -50 -501 -97 -684 -203 -303 -178 -465 -445 -541
-891 -60 -362 -57 -660 10 -862 66 -197 172 -325 385 -464 112 -72 381 -216
470 -250 41 -16 75 -31 74 -34 0 -3 -32 -25 -72 -50 -107 -68 -304 -266 -361
-365 -78 -135 -129 -290 -151 -462 -6 -43 -4 -53 8 -53 10 0 17 22 25 77 24
168 100 367 191 502 79 116 231 260 344 325 41 24 44 24 107 10 184 -39 391
-3 599 106 l94 49 94 -24 c208 -53 389 -134 504 -225 203 -161 342 -438 356
-707 3 -64 10 -113 16 -113 20 0 1 219 -27 314 -84 283 -295 541 -530 646 -67
30 -249 92 -335 113 l-54 14 48 33 c81 56 246 203 321 286 451 501 611 950
493 1384 -11 41 -44 125 -73 185 -156 324 -444 552 -806 637 -65 15 -130 20
-280 23 -107 2 -208 1 -225 -1z"/>
<path d="M170 3433 c-91 -14 -170 -37 -170 -51 0 -9 6 -12 18 -7 84 33 246 55
357 50 64 -4 72 -3 40 5 -39 9 -196 11 -245 3z"/>
<path d="M8660 3434 c-307 -59 -555 -231 -715 -495 -86 -142 -133 -325 -121
-467 16 -189 113 -406 237 -531 92 -91 225 -155 369 -176 84 -13 543 -32 630
-27 25 1 79 11 120 23 167 45 295 143 356 273 105 220 115 466 32 801 -55 226
-144 358 -314 468 -74 48 -189 100 -207 94 -5 -1 12 -11 39 -21 169 -63 320
-204 401 -372 38 -80 85 -257 103 -393 17 -122 8 -311 -20 -421 -56 -220 -151
-330 -343 -397 -104 -37 -313 -42 -623 -14 -299 27 -382 53 -502 156 -87 76
-184 240 -223 380 -30 105 -32 286 -6 390 70 274 311 539 588 648 143 57 300
82 414 68 69 -8 85 -7 72 6 -8 8 -251 14 -287 7z"/>
<path d="M490 3410 c8 -5 22 -9 30 -9 10 0 8 3 -5 9 -27 12 -43 12 -25 0z"/>
<path d="M8990 3410 c8 -5 20 -10 25 -10 6 0 3 5 -5 10 -8 5 -19 10 -25 10 -5
0 -3 -5 5 -10z"/>
<path d="M540 3397 c3 -3 29 -15 59 -27 116 -45 258 -158 329 -262 67 -98 106
-200 144 -383 33 -158 33 -400 -1 -530 -61 -240 -172 -358 -385 -414 -113 -30
-355 -28 -639 4 -41 5 -47 3 -47 -13 0 -18 14 -20 253 -28 314 -11 329 -10
424 16 235 64 353 190 419 445 45 172 36 370 -28 630 -63 260 -176 404 -403
518 -64 32 -137 58 -125 44z"/>
<path d="M16940 3370 c-179 -72 -353 -216 -464 -383 -108 -162 -150 -292 -150
-467 0 -130 19 -213 78 -343 109 -239 306 -392 534 -414 53 -5 62 -4 62 11 0
11 -9 16 -32 16 -105 1 -254 56 -346 129 -99 79 -201 245 -244 398 -31 109
-31 284 0 401 70 269 318 536 595 641 15 6 27 15 27 21 0 13 -7 12 -60 -10z"/>
<path d="M2710 2260 c-10 -7 18 -10 88 -10 302 0 734 -176 999 -406 75 -66 76
-66 35 -19 -99 113 -242 223 -358 275 -115 52 -350 129 -459 150 -111 21 -279
27 -305 10z"/>
<path d="M11210 2260 c-10 -7 15 -10 81 -10 188 0 404 -58 637 -170 149 -72
265 -146 369 -237 75 -65 76 -66 38 -20 -92 111 -255 232 -387 289 -119 51
-326 117 -432 138 -104 21 -280 27 -306 10z"/>
<path d="M2525 2230 c-102 -27 -151 -46 -234 -91 -317 -171 -725 -688 -812
-1029 -19 -73 -21 -103 -16 -220 9 -230 72 -388 256 -635 86 -116 223 -255
250 -255 13 0 -14 33 -88 108 -195 194 -340 451 -382 677 -18 95 -6 285 24
375 13 41 30 89 38 105 52 115 236 385 364 535 166 195 400 353 623 420 68 21
88 31 60 29 -7 0 -44 -9 -83 -19z"/>
<path d="M11025 2230 c-102 -27 -151 -46 -234 -91 -252 -136 -570 -494 -732
-824 -76 -157 -99 -246 -99 -389 1 -242 73 -425 273 -690 80 -105 210 -236
235 -236 15 0 -9 29 -87 108 -116 115 -216 255 -289 404 -82 167 -107 285 -99
457 10 208 64 333 270 621 112 156 160 214 265 318 137 134 296 232 504 307
103 38 100 44 -7 15z"/>
<path d="M3965 1637 c215 -355 228 -830 31 -1181 -96 -170 -233 -295 -441
-403 -63 -33 -91 -52 -77 -53 71 -1 316 174 442 317 319 360 345 889 63 1315
-61 93 -74 96 -18 5z"/>
<path d="M12461 1643 c185 -300 227 -701 109 -1026 -94 -256 -259 -436 -525
-571 -61 -31 -82 -45 -66 -46 60 -1 250 129 382 260 124 122 193 223 243 353
130 338 88 696 -119 1018 -57 89 -77 99 -24 12z"/>
<path d="M32 1413 c-64 -8 -30 -21 51 -20 105 2 149 -14 292 -108 216 -143
336 -266 423 -434 95 -184 124 -308 125 -531 1 -85 -5 -180 -11 -210 -7 -30
-15 -67 -18 -83 -5 -19 -2 -27 8 -27 9 0 21 26 33 78 27 105 28 352 2 462 -76
321 -216 528 -492 724 -195 138 -272 166 -413 149z"/>
<path d="M8480 1400 c-117 -25 -211 -60 -375 -140 -173 -85 -335 -190 -396
-257 -94 -105 -157 -272 -144 -377 9 -71 70 -249 107 -315 42 -75 184 -286
203 -301 36 -30 23 3 -28 72 -30 40 -82 121 -116 179 -213 366 -194 561 79
794 152 131 253 183 545 283 137 46 171 54 241 56 76 1 85 -1 165 -41 155 -78
354 -237 444 -354 92 -119 166 -282 200 -444 21 -96 25 -362 7 -445 -7 -30
-15 -68 -18 -84 -12 -54 20 -23 40 40 27 84 29 365 3 474 -77 324 -216 528
-492 724 -122 86 -163 109 -244 137 -66 23 -111 23 -221 -1z"/>
<path d="M16851 1365 c-223 -76 -544 -256 -638 -359 -97 -105 -162 -273 -148
-380 9 -66 69 -249 101 -306 53 -93 210 -320 222 -320 6 0 12 2 12 4 0 3 -27
42 -60 88 -77 108 -171 274 -209 368 -75 189 -56 334 63 483 47 59 199 185
288 238 85 51 238 115 410 170 59 19 108 37 108 42 0 15 -48 6 -149 -28z"/>
<path d="M4217 1353 c-13 -12 -7 -52 9 -61 38 -21 80 21 54 53 -13 15 -51 20
-63 8z"/>
<path d="M12717 1353 c-26 -26 12 -80 47 -67 21 8 30 42 16 59 -13 15 -51 20
-63 8z"/>
<path d="M3709 1311 c-38 -38 -39 -87 -4 -129 30 -36 69 -45 112 -27 63 27 76
110 24 157 -43 39 -92 38 -132 -1z"/>
<path d="M12211 1311 c-40 -37 -42 -86 -6 -129 30 -36 69 -45 113 -26 64 26
75 113 20 159 -41 35 -87 33 -127 -4z"/>
<path d="M4482 1249 c-68 -20 -93 -112 -46 -168 63 -75 183 -34 184 64 0 49
-22 83 -66 101 -18 8 -35 14 -36 13 -2 0 -18 -5 -36 -10z"/>
<path d="M12982 1248 c-67 -18 -93 -111 -46 -167 64 -77 184 -34 184 66 0 73
-64 120 -138 101z"/>
<path d="M4003 1188 c-22 -29 -22 -48 1 -74 18 -22 28 -26 50 -20 61 15 50
106 -13 106 -16 0 -33 -6 -38 -12z"/>
<path d="M12503 1188 c-22 -29 -22 -48 1 -74 18 -22 28 -26 50 -20 61 15 50
106 -13 106 -16 0 -33 -6 -38 -12z"/>
<path d="M4260 926 c-19 -23 -8 -61 18 -64 44 -7 67 32 36 62 -19 20 -38 20
-54 2z"/>
<path d="M12760 926 c-19 -23 -8 -61 18 -64 44 -7 67 32 36 62 -19 20 -38 20
-54 2z"/>
<path d="M3846 884 c-21 -21 -20 -37 3 -58 15 -14 24 -15 39 -7 26 14 31 31
19 59 -12 26 -39 29 -61 6z"/>
<path d="M12345 884 c-20 -21 -16 -43 12 -61 19 -13 24 -12 42 6 18 18 19 25
9 46 -13 29 -39 32 -63 9z"/>
<path d="M4475 835 c-14 -13 -25 -33 -25 -45 0 -29 35 -60 68 -60 60 0 83 72
36 109 -34 27 -50 26 -79 -4z"/>
<path d="M12975 835 c-14 -13 -25 -33 -25 -45 0 -27 34 -60 63 -60 64 0 90 70
41 109 -34 27 -50 26 -79 -4z"/>
<path d="M4223 583 c-18 -7 -16 -48 2 -63 19 -15 52 -4 60 21 11 35 -23 58
-62 42z"/>
<path d="M12722 578 c-28 -28 -1 -75 37 -63 11 3 23 15 26 26 12 38 -35 65
-63 37z"/>
</g>
</svg>
